<svg xmlns="http://www.w3.org/2000/svg" viewBox="0 0 1271.94 658.47"><defs><style>.cls-1{fill:#002c36;}.cls-2{fill:none;stroke-width:4px;}.cls-2,.cls-4{stroke:#d48600;stroke-miterlimit:10;}.cls-3,.cls-4{fill:#d48600;}</style></defs><title>SSM2</title><g id="bg_fill" data-name="bg fill"><rect class="cls-1" width="1271.94" height="658.47"/><path class="cls-2" d="M1010,459.08l91.76-94.73Z" transform="translate(-315.64 -192.36)"/></g><g id="lines"><path class="cls-2" d="M611.42,370.67" transform="translate(-315.64 -192.36)"/><path class="cls-2" d="M689.25,262.67" transform="translate(-315.64 -192.36)"/><line class="cls-2" x1="96.4" y1="240.23" x2="79.86" y2="434.64"/><line class="cls-2" x1="82.02" y1="434.64" x2="120.02" y2="349.48"/><line class="cls-2" x1="94.02" y1="454.44" x2="299.36" y2="479.64"/><line class="cls-2" x1="105.23" y1="240.39" x2="323.61" y2="582.64"/><line class="cls-2" x1="328.86" y1="579.64" x2="316.85" y2="502.33"/><line class="cls-2" x1="341.18" y1="590.32" x2="459.67" y2="569.64"/><line class="cls-2" x1="592.19" y1="503.14" x2="607.02" y2="581.48"/><line class="cls-2" x1="618.98" y1="585.89" x2="776.36" y2="428.98"/><line class="cls-2" x1="396.65" y1="72.77" x2="782.02" y2="165.27"/><line class="cls-2" x1="561.73" y1="76.27" x2="666.93" y2="67.95"/><line class="cls-2" x1="797.73" y1="163.77" x2="882.86" y2="118.39"/><line class="cls-2" x1="899.81" y1="122.84" x2="963.86" y2="221.15"/><line class="cls-2" x1="903.92" y1="117.78" x2="1020.36" y2="180.39"/><line class="cls-2" x1="1053.17" y1="199.27" x2="1142.24" y2="256.36"/><line class="cls-2" x1="1155.06" y1="273.6" x2="1185.23" y2="438.37"/><line class="cls-2" x1="1177.57" y1="444.81" x2="975.86" y2="305.64"/><line class="cls-2" x1="1144.38" y1="271.35" x2="1045.6" y2="426.76"/><line class="cls-2" x1="918.02" y1="403.31" x2="963.52" y2="512.98"/><line class="cls-2" x1="1034.77" y1="208.89" x2="990.98" y2="506.39"/><line class="cls-2" x1="961.52" y1="517.56" x2="792.69" y2="427.64"/><line class="cls-2" x1="962.36" y1="515.31" x2="557.73" y2="80.58"/><line class="cls-2" x1="924.77" y1="307.31" x2="954.42" y2="300.14"/><line class="cls-2" x1="970.92" y1="241.58" x2="967.65" y2="287.29"/><line class="cls-2" x1="913.97" y1="296.47" x2="962.98" y2="238.36"/><line class="cls-2" x1="1021.48" y1="200.14" x2="981.54" y2="225.89"/><line class="cls-2" x1="1017.04" y1="192.32" x2="694.34" y2="269.39"/><line class="cls-2" x1="695.86" y1="271.98" x2="959.48" y2="230.14"/><line class="cls-2" x1="788.23" y1="431.52" x2="847.94" y2="557.66"/><line class="cls-2" x1="607.02" y1="488.64" x2="841.23" y2="565.98"/><line class="cls-2" x1="895.23" y1="337.51" x2="856.12" y2="556.76"/><line class="cls-2" x1="906.28" y1="385.31" x2="630.76" y2="112.02"/><line class="cls-2" x1="631.51" y1="98.25" x2="668.07" y2="75.77"/><line class="cls-2" x1="687.76" y1="76.27" x2="784.86" y2="160.02"/><line class="cls-2" x1="626.6" y1="115.12" x2="662.04" y2="259.92"/><line class="cls-2" x1="569.36" y1="200.64" x2="648.86" y2="266.73"/><line class="cls-2" x1="455.77" y1="227.84" x2="642.37" y2="277.91"/><line class="cls-2" x1="661.39" y1="303.4" x2="641.53" y2="363.46"/><line class="cls-2" x1="682.38" y1="299.36" x2="770.53" y2="391.33"/><line class="cls-2" x1="784.71" y1="397.31" x2="902" y2="394.23"/><line class="cls-2" x1="918.32" y1="331.34" x2="1027.38" y2="430.16"/><line class="cls-2" x1="647.38" y1="374.89" x2="774.07" y2="418.89"/><line class="cls-2" x1="605.98" y1="411.52" x2="594.86" y2="463.31"/><line class="cls-2" x1="613.95" y1="403.64" x2="768" y2="397.31"/><line class="cls-2" x1="549.84" y1="81.64" x2="479.36" y2="326.61"/><line class="cls-2" x1="546.77" y1="78.7" x2="453.11" y2="217.89"/><line class="cls-2" x1="390.11" y1="76.77" x2="432.11" y2="148.89"/><line class="cls-2" x1="440" y1="163.21" x2="445.86" y2="215.64"/><line class="cls-2" x1="292.48" y1="198.02" x2="428.03" y2="157.34"/><line class="cls-2" x1="289.73" y1="212.77" x2="566.87" y2="467.22"/><line class="cls-2" x1="482.69" y1="347.64" x2="600.98" y2="401.77"/><line class="cls-2" x1="487.02" y1="343.14" x2="630.76" y2="369.27"/><line class="cls-2" x1="564.98" y1="200.95" x2="584.99" y2="463.31"/><line class="cls-2" x1="473.29" y1="557.87" x2="560.17" y2="200.64"/><line class="cls-2" x1="553.69" y1="81.98" x2="560.86" y2="189.81"/><line class="cls-2" x1="144.23" y1="324.14" x2="265.23" y2="214.77"/><line class="cls-2" x1="143.61" y1="326.31" x2="440.28" y2="226.19"/><line class="cls-2" x1="145.98" y1="326.31" x2="389.76" y2="401.97"/><line class="cls-2" x1="446.98" y1="232.35" x2="406.61" y2="393.44"/><line class="cls-2" x1="410.79" y1="412.09" x2="439.36" y2="434.64"/><line class="cls-2" x1="469.36" y1="349.68" x2="448.36" y2="432.98"/><line class="cls-2" x1="408.52" y1="394.73" x2="463.19" y2="349.68"/><line class="cls-2" x1="278.58" y1="219.6" x2="311.19" y2="469.64"/><line class="cls-2" x1="432.82" y1="161.8" x2="321.36" y2="470.64"/><line class="cls-2" x1="439.36" y1="444.14" x2="331.36" y2="481.64"/><line class="cls-2" x1="194.54" y1="513.14" x2="376.61" y2="76.27"/><path class="cls-2" d="M692.25,266.88" transform="translate(-315.64 -192.36)"/><line class="cls-2" x1="374.44" y1="74.52" x2="285.93" y2="190.58"/><line class="cls-2" x1="447.45" y1="447.66" x2="467.64" y2="557.87"/><line class="cls-2" x1="560.48" y1="78.7" x2="611.47" y2="100.23"/><line class="cls-2" x1="633.46" y1="106.45" x2="782.02" y2="161.39"/><line class="cls-2" x1="107.84" y1="228.4" x2="373.61" y2="72.27"/><line class="cls-2" x1="108.84" y1="232.35" x2="258.48" y2="204.38"/><line class="cls-2" x1="797.73" y1="165.27" x2="960.69" y2="225.05"/></g><g id="bigcircles"><circle class="cls-3" cx="314.73" cy="484.84" r="17.63"/><circle class="cls-3" cx="125.54" cy="331.81" r="25.06"/><circle class="cls-3" cx="670.91" cy="283.13" r="30.25"/><circle class="cls-3" cx="587.11" cy="484.84" r="26.84"/><circle class="cls-3" cx="474.36" cy="340.31" r="14.58"/><circle class="cls-2" cx="401.4" cy="404.69" r="11.95"/><circle class="cls-3" cx="445.86" cy="440.64" r="11.95"/><circle class="cls-3" cx="900.11" cy="315.31" r="27.6"/><circle class="cls-4" cx="789.89" cy="166.14" r="9.72"/><circle class="cls-3" cx="562.9" cy="195.82" r="9.72"/><circle class="cls-3" cx="553.18" cy="74.52" r="9.72"/><circle class="cls-3" cx="607.04" cy="403.64" r="9.72"/><circle class="cls-3" cx="1036.79" cy="189.81" r="23"/><circle class="cls-3" cx="985.55" cy="535.11" r="34.53"/><circle class="cls-3" cx="76.91" cy="451.03" r="19.61"/><circle class="cls-3" cx="276.16" cy="204.38" r="19.61"/><circle class="cls-3" cx="384.56" cy="67.44" r="16.74"/></g><g id="tinycircles"><circle class="cls-2" cx="639.02" cy="371.43" r="8.35"/><circle class="cls-2" cx="448.36" cy="224" r="8.35"/><circle class="cls-2" cx="437.86" cy="155.14" r="8.35"/><circle class="cls-2" cx="100.48" cy="232.35" r="8.35"/><circle class="cls-2" cx="191.27" cy="520.04" r="8.35"/><circle class="cls-2" cx="469.87" cy="567.82" r="10.2"/><circle class="cls-2" cx="610.59" cy="591.67" r="10.2"/><circle class="cls-2" cx="330.85" cy="589.79" r="10.35"/><circle class="cls-2" cx="913.44" cy="394.23" r="11.44"/><circle class="cls-2" cx="1187.86" cy="449.81" r="11.44"/><circle class="cls-2" cx="1151.79" cy="262.64" r="11.44"/><circle class="cls-2" cx="970.92" cy="230.14" r="11.44"/><circle class="cls-2" cx="893.36" cy="113.39" r="11.44"/><circle class="cls-2" cx="622.02" cy="104.64" r="11.44"/><circle class="cls-2" cx="678.13" cy="70.31" r="11.44"/><circle class="cls-2" cx="965.86" cy="298.33" r="11.44"/><circle class="cls-2" cx="1038.1" cy="437.06" r="12.75"/><circle class="cls-2" cx="776.36" cy="397.31" r="8.35"/><circle class="cls-2" cx="783.71" cy="423" r="9.64"/><circle class="cls-2" cx="853.14" cy="567.18" r="10.84"/></g></svg>