<?xml version="1.0" encoding="UTF-8"?>
<svg version="1.1" viewBox="0 0 1271.9 658.47" xmlns="http://www.w3.org/2000/svg" xmlns:cc="http://creativecommons.org/ns#" xmlns:dc="http://purl.org/dc/elements/1.1/" xmlns:rdf="http://www.w3.org/1999/02/22-rdf-syntax-ns#"><metadata><rdf:RDF><cc:Work rdf:about=""><dc:format>image/svg+xml</dc:format><dc:type rdf:resource="http://purl.org/dc/dcmitype/StillImage"/><dc:title>SSM2</dc:title></cc:Work></rdf:RDF></metadata><defs><style>.cls-1{fill:#002c36;}.cls-2{fill:none;stroke-width:4px;}.cls-2,.cls-4{stroke:#d48600;stroke-miterlimit:10;}.cls-3,.cls-4{fill:#d48600;}</style></defs><title>SSM2</title><g id="lines"><path class="cls-2" transform="translate(-315.64 -192.36)" d="m611.42 370.67"/><path class="cls-2" transform="translate(-315.64 -192.36)" d="m689.25 262.67"/><line class="cls-2" x1="96.4" x2="79.86" y1="240.23" y2="434.64"/><line class="cls-2" x1="82.02" x2="120.02" y1="434.64" y2="349.48"/><line class="cls-2" x1="94.02" x2="299.36" y1="454.44" y2="479.64"/><line class="cls-2" x1="105.23" x2="323.61" y1="240.39" y2="582.64"/><line class="cls-2" x1="328.86" x2="316.85" y1="579.64" y2="502.33"/><line class="cls-2" x1="341.18" x2="459.67" y1="590.32" y2="569.64"/><line class="cls-2" x1="592.19" x2="607.02" y1="503.14" y2="581.48"/><line class="cls-2" x1="618.98" x2="776.36" y1="585.89" y2="428.98"/><line class="cls-2" x1="396.65" x2="782.02" y1="72.77" y2="165.27"/><line class="cls-2" x1="561.73" x2="666.93" y1="76.27" y2="67.95"/><line class="cls-2" x1="797.73" x2="882.86" y1="163.77" y2="118.39"/><line class="cls-2" x1="899.81" x2="963.86" y1="122.84" y2="221.15"/><line class="cls-2" x1="903.92" x2="1020.4" y1="117.78" y2="180.39"/><line class="cls-2" x1="1053.2" x2="1142.2" y1="199.27" y2="256.36"/><line class="cls-2" x1="1155.1" x2="1185.2" y1="273.6" y2="438.37"/><line class="cls-2" x1="1177.6" x2="975.86" y1="444.81" y2="305.64"/><line class="cls-2" x1="1144.4" x2="1045.6" y1="271.35" y2="426.76"/><line class="cls-2" x1="918.02" x2="963.52" y1="403.31" y2="512.98"/><line class="cls-2" x1="1034.8" x2="990.98" y1="208.89" y2="506.39"/><line class="cls-2" x1="961.52" x2="792.69" y1="517.56" y2="427.64"/><line class="cls-2" x1="962.36" x2="557.73" y1="515.31" y2="80.58"/><line class="cls-2" x1="924.77" x2="954.42" y1="307.31" y2="300.14"/><line class="cls-2" x1="970.92" x2="967.65" y1="241.58" y2="287.29"/><line class="cls-2" x1="913.97" x2="962.98" y1="296.47" y2="238.36"/><line class="cls-2" x1="1021.5" x2="981.54" y1="200.14" y2="225.89"/><line class="cls-2" x1="1017" x2="694.34" y1="192.32" y2="269.39"/><line class="cls-2" x1="695.86" x2="959.48" y1="271.98" y2="230.14"/><line class="cls-2" x1="788.23" x2="847.94" y1="431.52" y2="557.66"/><line class="cls-2" x1="607.02" x2="841.23" y1="488.64" y2="565.98"/><line class="cls-2" x1="895.23" x2="856.12" y1="337.51" y2="556.76"/><line class="cls-2" x1="906.28" x2="630.76" y1="385.31" y2="112.02"/><line class="cls-2" x1="631.51" x2="668.07" y1="98.25" y2="75.77"/><line class="cls-2" x1="687.76" x2="784.86" y1="76.27" y2="160.02"/><line class="cls-2" x1="626.6" x2="662.04" y1="115.12" y2="259.92"/><line class="cls-2" x1="569.36" x2="648.86" y1="200.64" y2="266.73"/><line class="cls-2" x1="455.77" x2="642.37" y1="227.84" y2="277.91"/><line class="cls-2" x1="661.39" x2="641.53" y1="303.4" y2="363.46"/><line class="cls-2" x1="682.38" x2="770.53" y1="299.36" y2="391.33"/><line class="cls-2" x1="784.71" x2="902" y1="397.31" y2="394.23"/><line class="cls-2" x1="918.32" x2="1027.4" y1="331.34" y2="430.16"/><line class="cls-2" x1="647.38" x2="774.07" y1="374.89" y2="418.89"/><line class="cls-2" x1="605.98" x2="594.86" y1="411.52" y2="463.31"/><line class="cls-2" x1="613.95" x2="768" y1="403.64" y2="397.31"/><line class="cls-2" x1="549.84" x2="479.36" y1="81.64" y2="326.61"/><line class="cls-2" x1="546.77" x2="453.11" y1="78.7" y2="217.89"/><line class="cls-2" x1="390.11" x2="432.11" y1="76.77" y2="148.89"/><line class="cls-2" x1="440" x2="445.86" y1="163.21" y2="215.64"/><line class="cls-2" x1="292.48" x2="428.03" y1="198.02" y2="157.34"/><line class="cls-2" x1="289.73" x2="566.87" y1="212.77" y2="467.22"/><line class="cls-2" x1="482.69" x2="600.98" y1="347.64" y2="401.77"/><line class="cls-2" x1="487.02" x2="630.76" y1="343.14" y2="369.27"/><line class="cls-2" x1="564.98" x2="584.99" y1="200.95" y2="463.31"/><line class="cls-2" x1="473.29" x2="560.17" y1="557.87" y2="200.64"/><line class="cls-2" x1="553.69" x2="560.86" y1="81.98" y2="189.81"/><line class="cls-2" x1="144.23" x2="265.23" y1="324.14" y2="214.77"/><line class="cls-2" x1="143.61" x2="440.28" y1="326.31" y2="226.19"/><line class="cls-2" x1="145.98" x2="389.76" y1="326.31" y2="401.97"/><line class="cls-2" x1="446.98" x2="406.61" y1="232.35" y2="393.44"/><line class="cls-2" x1="410.79" x2="439.36" y1="412.09" y2="434.64"/><line class="cls-2" x1="469.36" x2="448.36" y1="349.68" y2="432.98"/><line class="cls-2" x1="408.52" x2="463.19" y1="394.73" y2="349.68"/><line class="cls-2" x1="278.58" x2="311.19" y1="219.6" y2="469.64"/><line class="cls-2" x1="432.82" x2="321.36" y1="161.8" y2="470.64"/><line class="cls-2" x1="439.36" x2="331.36" y1="444.14" y2="481.64"/><line class="cls-2" x1="194.54" x2="376.61" y1="513.14" y2="76.27"/><path class="cls-2" transform="translate(-315.64 -192.36)" d="m692.25 266.88"/><line class="cls-2" x1="374.44" x2="285.93" y1="74.52" y2="190.58"/><line class="cls-2" x1="447.45" x2="467.64" y1="447.66" y2="557.87"/><line class="cls-2" x1="560.48" x2="611.47" y1="78.7" y2="100.23"/><line class="cls-2" x1="633.46" x2="782.02" y1="106.45" y2="161.39"/><line class="cls-2" x1="107.84" x2="373.61" y1="228.4" y2="72.27"/><line class="cls-2" x1="108.84" x2="258.48" y1="232.35" y2="204.38"/><line class="cls-2" x1="797.73" x2="960.69" y1="165.27" y2="225.05"/></g><g id="bigcircles"><circle class="cls-3" cx="314.73" cy="484.84" r="17.63"/><circle class="cls-3" cx="125.54" cy="331.81" r="25.06"/><circle class="cls-3" cx="670.91" cy="283.13" r="30.25"/><circle class="cls-3" cx="587.11" cy="484.84" r="26.84"/><circle class="cls-3" cx="474.36" cy="340.31" r="14.58"/><circle class="cls-2" cx="401.4" cy="404.69" r="11.95"/><circle class="cls-3" cx="445.86" cy="440.64" r="11.95"/><circle class="cls-3" cx="900.11" cy="315.31" r="27.6"/><circle class="cls-4" cx="789.89" cy="166.14" r="9.72"/><circle class="cls-3" cx="562.9" cy="195.82" r="9.72"/><circle class="cls-3" cx="553.18" cy="74.52" r="9.72"/><circle class="cls-3" cx="607.04" cy="403.64" r="9.72"/><circle class="cls-3" cx="1036.8" cy="189.81" r="23"/><circle class="cls-3" cx="985.55" cy="535.11" r="34.53"/><circle class="cls-3" cx="76.91" cy="451.03" r="19.61"/><circle class="cls-3" cx="276.16" cy="204.38" r="19.61"/><circle class="cls-3" cx="384.56" cy="67.44" r="16.74"/></g><g id="tinycircles"><circle class="cls-2" cx="639.02" cy="371.43" r="8.35"/><circle class="cls-2" cx="448.36" cy="224" r="8.35"/><circle class="cls-2" cx="437.86" cy="155.14" r="8.35"/><circle class="cls-2" cx="100.48" cy="232.35" r="8.35"/><circle class="cls-2" cx="191.27" cy="520.04" r="8.35"/><circle class="cls-2" cx="469.87" cy="567.82" r="10.2"/><circle class="cls-2" cx="610.59" cy="591.67" r="10.2"/><circle class="cls-2" cx="330.85" cy="589.79" r="10.35"/><circle class="cls-2" cx="913.44" cy="394.23" r="11.44"/><circle class="cls-2" cx="1187.9" cy="449.81" r="11.44"/><circle class="cls-2" cx="1151.8" cy="262.64" r="11.44"/><circle class="cls-2" cx="970.92" cy="230.14" r="11.44"/><circle class="cls-2" cx="893.36" cy="113.39" r="11.44"/><circle class="cls-2" cx="622.02" cy="104.64" r="11.44"/><circle class="cls-2" cx="678.13" cy="70.31" r="11.44"/><circle class="cls-2" cx="965.86" cy="298.33" r="11.44"/><circle class="cls-2" cx="1038.1" cy="437.06" r="12.75"/><circle class="cls-2" cx="776.36" cy="397.31" r="8.35"/><circle class="cls-2" cx="783.71" cy="423" r="9.64"/><circle class="cls-2" cx="853.14" cy="567.18" r="10.84"/></g></svg>
